<?xml version="1.0" encoding="utf-8"?>
<!DOCTYPE svg PUBLIC "-//W3C//DTD SVG 1.1//EN" "http://www.w3.org/Graphics/SVG/1.1/DTD/svg11.dtd">
<svg xmlns="http://www.w3.org/2000/svg" xmlns:xlink="http://www.w3.org/1999/xlink" version="1.1" x="0px" y="0px" width="214.3px" height="51.4px" viewBox="0 0 214.3 51.4" enable-background="new 0 0 214.3 51.4" xml:space="preserve"><g><path d="M36.6 36.4c0 4.7-1.3 8.3-3.8 10.8c-2.5 2.5-6.1 3.8-10.6 3.8h-6.8c-5.6 0-9.5-1-11.9-2.9C1.2 46 0 42.7 0 37.9V0.4h21.3 c4.8 0 8.4 1.2 10.9 3.6c2.4 2.4 3.6 5.8 3.6 10.2c0 2.6-0.6 4.7-1.9 6.5c-1.3 1.8-2.7 3.1-4.3 3.8C34.3 26.8 36.6 30.7 36.6 36.4z M20.6 20.1c3.6 0 5.5-1.8 5.5-5.5c0-3.6-1.8-5.5-5.5-5.5H9.9v10.9H20.6z M26.7 35.9c0-2.3-0.4-4-1.2-5.1c-0.8-1.2-2.2-1.7-4.3-1.7 H9.9v7.9c0 1.9 0.5 3.3 1.5 4c1 0.8 2.6 1.1 4.8 1.1h5.1C24.9 42.1 26.7 40 26.7 35.9z"/><path d="M82 50.9H71.8l-2.8-8.7H52l-2.8 8.7H38.9L55.1 4.7c0.7-1.6 1.5-2.7 2.4-3.3c0.9-0.6 1.9-0.9 3.2-0.9c1.3 0 2.3 0.3 3.1 0.9 c0.8 0.6 1.5 1.7 2.1 3.4L82 50.9z M66.6 33.9l-6-20l-6.2 20H66.6z"/><path d="M126.7 0.4v45.4c0 1.6-0.5 2.9-1.4 4s-2.1 1.7-3.3 1.7c-3.3 0-5.9-1.9-8-5.7L96.5 18.5v32.4h-9.9V0.4h9.5l20.7 33v-33 H126.7z"/><path d="M161 31.3h9.1c0 6.4-1.6 11.4-4.8 14.8c-3.2 3.4-7.7 5.2-13.6 5.2c-12.9 0-19.3-7.6-19.3-22.7v-4.3c0-12 3.3-19.4 9.9-22.5 c2.6-1.2 5.7-1.8 9.4-1.8c5.4 0 9.8 1.5 13.1 4.4c3.4 3 5.1 7.2 5.1 12.8h-9.2c-0.5-2.8-1.4-4.9-2.8-6.3c-1.3-1.4-3.4-2.1-6.2-2.1 c-3.3 0-5.8 1-7.4 3.1c-1.1 1.5-1.8 4-2 7.5c-0.1 1.1-0.1 2.7-0.1 4.6v4.4c0 5.4 0.8 9.1 2.3 11.1c1.6 2 4 3 7.3 3 c3.3 0 5.6-0.9 6.8-2.7S160.6 35.1 161 31.3z"/><path d="M214.3 23.3v3.8c0 8.5-1.6 14.6-4.8 18.4s-8.3 5.7-15.3 5.7c-7 0-12.1-1.9-15.3-5.7c-3.1-3.8-4.7-10-4.7-18.6v-3.7 c0-7.8 1.6-13.7 4.8-17.5c3.2-3.8 8.2-5.7 15.2-5.7c6.9 0 12 1.9 15.3 5.8C212.7 9.7 214.3 15.5 214.3 23.3z M204.5 26.9v-2.6 c0-4.5-0.6-8.1-1.7-10.8c-1.3-3.1-4.2-4.7-8.5-4.7c-4.4 0-7.3 1.6-8.6 4.7c-1.1 2.6-1.6 6.2-1.6 10.8v2.6c0 6.1 0.9 10.2 2.6 12.3 c0.7 0.9 1.6 1.7 2.9 2.3s2.9 1 4.7 1c1.8 0 3.4-0.3 4.6-0.9c1.3-0.6 2.3-1.4 3-2.3c0.7-0.9 1.3-2.1 1.6-3.5 C204.2 33.5 204.5 30.5 204.5 26.9z"/></g></svg>
